# xmcd
#
# Track frame offsets:
#	150
#	13755
#	27977
#	41895
#	57185
#	73322
#	87590
#	104477
#	119447
#	137322
#	152327
#	172217
#	187865
#
# Disc length: 2746 seconds
#
# Revision: 0
# Processed by: cddbd v1.5.1PL2 Copyright (c) Steve Scherf et al.
# Submitted via: dBpowerAMP V4.0
#
DISCID=b30ab80d
DTITLE=Alabama - Alabama Hits, Disc 3
DYEAR=2004
DGENRE=Country
TTITLE0=Lovin' You Is Killin' Me
TTITLE1=Southern Star
TTITLE2=Down On The River
TTITLE3=If You're Gonna Play In Texas
TTITLE4=Sad Lookin' Moon
TTITLE5=You Turn Me On
TTITLE6=Roll On
TTITLE7=God Must Have Spent A Little More Time On You
TTITLE8=Tar Top
TTITLE9=Love In The First Degree
TTITLE10=Carolina Mountain Dew
TTITLE11=Down Home
TTITLE12=My Home's In Alabama
EXTD=
EXTT0=
EXTT1=
EXTT2=
EXTT3=
EXTT4=
EXTT5=
EXTT6=
EXTT7=
EXTT8=
EXTT9=
EXTT10=
EXTT11=
EXTT12=
PLAYORDER=
